<?xml version="1.0" encoding="UTF-8"?>
<svg version="1.1" xmlns="http://www.w3.org/2000/svg" width="500" height="500">
<path d="M0 0 C165 0 330 0 500 0 C500 165 500 330 500 500 C335 500 170 500 0 500 C0 335 0 170 0 0 Z " fill="#5271FF" transform="translate(0,0)"/>
<path d="M0 0 C126.76002674 0 126.76002674 0 156.6875 28.3125 C161.31117016 33.05848948 164.73751314 38.25376058 168 44 C168.45117188 44.79019531 168.90234375 45.58039063 169.3671875 46.39453125 C184.6937966 75.09622468 185.651367 115.19440395 176.55859375 145.984375 C169.30227949 169.10464337 155.96030175 187.55324151 134.26171875 199.0390625 C93.56345317 219.44641128 42.19717494 211 0 211 C0 141.37 0 71.74 0 0 Z " fill="#FEFEFF" transform="translate(259,154)"/>
<path d="M0 0 C3.02956371 2.54446741 5.11577316 4.56814991 6.625 8.25 C6.01914063 9.02601563 5.41328125 9.80203125 4.7890625 10.6015625 C3.94237549 11.69245008 3.09605026 12.78361851 2.25 13.875 C1.57868042 14.73677856 1.57868042 14.73677856 0.89379883 15.6159668 C-1.53426147 18.75993378 -3.8709668 21.93489085 -6.08984375 25.23046875 C-6.52570801 25.87097168 -6.96157227 26.51147461 -7.41064453 27.17138672 C-8.25015918 28.4147673 -9.07587126 29.66759982 -9.88623047 30.93017578 C-11.69286011 33.58974672 -12.72374205 35.09293779 -15.91796875 35.86328125 C-19.00727639 35.09218221 -20.17925743 33.91509089 -22.375 31.625 C-34.80944289 19.93538231 -52.5668898 16.78102203 -69.0390625 17.0390625 C-79.28585568 17.401662 -88.62145045 20.16901267 -95.81640625 27.7734375 C-99.46081075 32.97972965 -99.03811479 39.16592177 -98.375 45.25 C-97.35170106 50.20203593 -94.65841018 53.72309285 -90.69702148 56.75488281 C-81.83821143 62.45894682 -71.2541992 64.33832609 -61.06185913 66.21801758 C-37.62002964 70.58062713 -10.78342805 75.70184484 4.3125 95.9375 C14.04468632 110.58021868 17.21185285 128.36504368 14.20605469 145.66064453 C10.58079865 161.58419495 3.51381729 175.37090482 -10.18359375 184.88671875 C-33.66268054 199.49313816 -63.6586375 201.80583078 -90.375 196.22265625 C-112.24030906 191.11053007 -131.43807816 180.73444077 -145.3203125 162.7265625 C-146.375 160.25 -146.375 160.25 -145.87890625 157.8203125 C-144.00736152 154.62167241 -141.75704776 151.89001438 -139.3125 149.125 C-138.31769967 147.98421461 -137.32423179 146.84226604 -136.33203125 145.69921875 C-135.83525879 145.1273584 -135.33848633 144.55549805 -134.82666016 143.96630859 C-133.4423346 142.32961019 -132.12440893 140.66099444 -130.82421875 138.95703125 C-130.05722656 137.96058594 -129.29023438 136.96414063 -128.5 135.9375 C-127.82195312 135.03386719 -127.14390625 134.13023437 -126.4453125 133.19921875 C-124.375 131.25 -124.375 131.25 -121.81640625 130.7109375 C-118.60748917 131.41946639 -117.98861721 132.478879 -116.1875 135.1875 C-105.45807052 149.84569274 -91.03168261 157.48971758 -73.375 160.25 C-72.56289062 160.43046875 -71.75078125 160.6109375 -70.9140625 160.796875 C-59.79311595 162.78153623 -48.07216493 161.5788098 -38.15234375 156 C-33.13463481 152.25003493 -30.72941168 147.28035676 -29.375 141.25 C-28.65600901 133.83132026 -28.4418736 127.77457885 -32.375 121.25 C-33.85334215 119.47351984 -33.85334215 119.47351984 -35.5625 118.125 C-36.09230469 117.66867187 -36.62210937 117.21234375 -37.16796875 116.7421875 C-42.96100252 112.82548148 -48.99757543 110.53787204 -55.75 108.875 C-56.55091064 108.66931396 -57.35182129 108.46362793 -58.17700195 108.25170898 C-63.04412469 107.02010213 -67.93024255 105.89344558 -72.83203125 104.80859375 C-95.94016788 99.69009688 -118.92332494 93.84420396 -132.83984375 72.921875 C-135.35163419 68.5502092 -136.97749557 64.08157312 -138.375 59.25 C-138.60058594 58.5075 -138.82617188 57.765 -139.05859375 57 C-143.20897595 40.51296451 -140.7058434 23.94903776 -132.1875 9.375 C-123.45323431 -3.31227387 -110.00519323 -11.50252455 -95.375 -15.75 C-94.3953125 -16.0490625 -93.415625 -16.348125 -92.40625 -16.65625 C-62.36543121 -24.23664353 -24.61841274 -19.55939336 0 0 Z " fill="#FDFDFF" transform="translate(205.375,169.75)"/>
<path d="M0 0 C63.72093023 0 63.72093023 0 81.640625 16.51171875 C97.17064431 32.73650209 97.49218063 56.84801152 97.28125 77.828125 C96.81849259 95.36663089 92.44632223 112.23225247 79.96875 125.09375 C58.38501192 145.46150283 27.71647499 141 0 141 C0 94.47 0 47.94 0 0 Z " fill="#5372FF" transform="translate(300,189)"/>
<path d="M0 0 C2 3 2 3 3.0078125 4.8671875 C6.91109848 11.88218398 11.99201837 14.49600919 19 18 C12.73 18 6.46 18 0 18 C0 12.06 0 6.12 0 0 Z " fill="#F8F9FF" transform="translate(0,482)"/>
<path d="M0 0 C0.33 0 0.66 0 1 0 C1 5.94 1 11.88 1 18 C-4.94 18 -10.88 18 -17 18 C-14 16 -14 16 -11.9140625 14.84375 C-5.43959631 11.04303947 -2.72482787 6.9284568 0 0 Z " fill="#F9FAFF" transform="translate(499,482)"/>
<path d="M0 0 C6.27 0 12.54 0 19 0 C17.02 0.99 17.02 0.99 15 2 C8.20313646 5.78341037 3.61033489 9.38652323 1 17 C0.67 17 0.34 17 0 17 C0 11.39 0 5.78 0 0 Z " fill="#F9FAFF" transform="translate(0,0)"/>
<path d="M0 0 C5.94 0 11.88 0 18 0 C18 5.61 18 11.22 18 17 C15 13 15 13 13.3125 10.0625 C10.39507878 6.19888812 7.1502452 4.35208968 3 2 C2.01 1.34 1.02 0.68 0 0 Z " fill="#FAFBFF" transform="translate(482,0)"/>
</svg>
